<?xml version="1.0" encoding="utf-8"?>
<svg 
width="14px" 
height="14px" 
viewBox="0 0 14 14" 
version="1.1" 
xmlns:xlink="http://www.w3.org/1999/xlink" 
xmlns="http://www.w3.org/2000/svg">

  <desc>Created with Lunacy</desc>
  <defs>
    <filter id="filter_1">
      <feColorMatrix 
      in="SourceGraphic" 
      type="matrix" 
      values="0 0 0 0 0.7921569 0 0 0 0 0.6156863 0 0 0 0 0.3372549 0 0 0 1 0" />
    </filter>
    <path d="M0 0L14 0L14 14L0 14L0 0Z" id="path_1" />
    <clipPath id="mask_1">
      <use xlink:href="#path_1" />
    </clipPath>
  </defs>
  <g id="External-Link-icon" filter="url(#filter_1)">
    <path 
      d="M0 0L14 0L14 14L0 14L0 0Z" 
      id="Background" 
      fill="none" 
      fill-rule="evenodd" 
      stroke="none" />
    <g clip-path="url(#mask_1)">
            <path 
                fill-rule="evenodd" 
                clip-rule="evenodd" 
                d="M11.102 8.275V11.438c0 .182.009.369-.015.55l.024-.18c-.019.132-.054.258-.104.38l.068-.164c-.05.119-.115.23-.193.333l.108-.142a1.613 1.613 0 01-.269.272l.143-.111a1.6 1.6 0 01-.349.206l.173-.072c-.129.053-.263.09-.4.108l.185-.024c-.164.02-.331.012-.496.012H2.522c-.17 0-.342.007-.51-.015l.18.025a1.596 1.596 0 01-.38-.105l.164.069a1.599 1.599 0 01-.332-.194l.141.108a1.612 1.612 0 01-.272-.269l.111.143a1.596 1.596 0 01-.206-.349l.072.173a1.589 1.589 0 01-.108-.4l.024.185c-.02-.163-.012-.331-.012-.495v-.907-2.826-2.82-.903c0-.169-.007-.342.015-.51l-.025.18c.02-.131.054-.258.105-.38l-.069.164a1.6 1.6 0 01.194-.332l-.108.141c.079-.1.168-.192.269-.272l-.143.111c.107-.083.224-.152.349-.206l-.173.072c.129-.053.262-.089.4-.107l-.185.023c.268-.032.549-.012.818-.012H5.683c.38 0 .7-.31.702-.692a.704.704 0 00-.692-.702H2.337c-.193 0-.381.015-.573.049-.221.039-.44.131-.636.238-.192.106-.372.25-.522.41A2.292 2.292 0 000 3.787v7.929c0 .154.018.304.039.457.03.225.12.443.22.645.097.197.24.379.394.534.427.433 1.02.648 1.621.648h7.929a2.76 2.76 0 00.651-.076c.139-.037.274-.098.404-.156.202-.09.385-.232.546-.38.322-.292.56-.722.642-1.149.036-.189.05-.374.05-.565v-1.128-2.26-.001c0-.38-.31-.7-.692-.703a.704.704 0 00-.702.693z"></path>
            <path 
                fill-rule="evenodd" 
                clip-rule="evenodd" 
                d="M7.75 1.412l1.735.002 2.913.003h.899c.38 0 .7-.308.703-.686a.701.701 0 00-.693-.697L11.572.032 8.659.03 7.76.029c-.38 0-.7.308-.702.687a.701.701 0 00.692.696z"></path>
            <path 
                fill-rule="evenodd" 
                clip-rule="evenodd" 
                d="M13.995 6.25l.001-1.736L14 1.602v-.9c.001-.38-.308-.7-.686-.702a.701.701 0 00-.697.693 10034.559 10034.559 0 01-.004 4.648v.898c-.001.38.308.7.686.703a.701.701 0 00.697-.693z"></path>
            <path 
                fill-rule="evenodd" 
                clip-rule="evenodd" 
                d="M5.963 9.023l.716-.715a95167.064 95167.064 0 005.858-5.859l1.16-1.16.104-.103a.705.705 0 00-.005-.987.704.704 0 00-.986.005l-.715.715-1.74 1.74-2.157 2.156-1.962 1.963-1.16 1.16-.104.104a.705.705 0 00.005.987.704.704 0 00.986-.006z"></path>
    </g>
  </g>
</svg>