<?xml version="1.0" encoding="utf-8"?>
<svg width="14px" height="14px" viewBox="0 0 14 14" version="1.1" xmlns:xlink="http://www.w3.org/1999/xlink" xmlns="http://www.w3.org/2000/svg">
  <desc>Created with Lunacy</desc>
  <defs>
    <filter id="filter_1">
      <feColorMatrix in="SourceGraphic" type="matrix" values="0 0 0 0 0.7921569 0 0 0 0 0.6156863 0 0 0 0 0.3372549 0 0 0 1 0" />
    </filter>
    <path d="M0 0L14 0L14 14L0 14L0 0Z" id="path_1" />
    <clipPath id="mask_1">
      <use xlink:href="#path_1" />
    </clipPath>
  </defs>
  <g id="External-Link-icon" filter="url(#filter_1)">
    <path d="M0 0L14 0L14 14L0 14L0 0Z" id="Background" fill="none" fill-rule="evenodd" stroke="none" />
    <g clip-path="url(#mask_1)">
      <path d="M9.35375 0C9.19953 0.0142188 9.08578 0.152031 9.1 0.30625C9.11422 0.460469 9.25203 0.574219 9.40625 0.56L13.0375 0.56L7.1925 6.41375C7.10938 6.48156 7.07109 6.58984 7.09516 6.69484C7.11922 6.79875 7.20125 6.88078 7.30516 6.90484C7.41016 6.92891 7.51844 6.89063 7.58625 6.8075L13.44 0.9625L13.44 4.59375C13.4389 4.69438 13.4914 4.78844 13.5789 4.83984C13.6664 4.89016 13.7736 4.89016 13.8611 4.83984C13.9486 4.78844 14.0011 4.69438 14 4.59375L14 0L9.40625 0C9.3975 0 9.38875 0 9.38 0C9.37125 0 9.3625 0 9.35375 0L9.35375 0ZM0.56 2.8C0.413438 2.8 0.263594 2.85141 0.1575 2.9575C0.0514063 3.06359 -4.29153e-08 3.21344 -4.29153e-08 3.36L-4.29153e-08 13.44C-4.29153e-08 13.5866 0.0514063 13.7364 0.1575 13.8425C0.263594 13.9486 0.413438 14 0.56 14L10.64 14C10.7866 14 10.9364 13.9486 11.0425 13.8425C11.1486 13.7364 11.2 13.5866 11.2 13.44L11.2 5.04C11.2011 4.93937 11.1486 4.84531 11.0611 4.79391C10.9736 4.74359 10.8664 4.74359 10.7789 4.79391C10.6914 4.84531 10.6389 4.93937 10.64 5.04L10.64 13.44L0.56 13.44L0.56 3.36L8.96 3.36C9.06063 3.36109 9.15469 3.30859 9.20609 3.22109C9.25641 3.13359 9.25641 3.02641 9.20609 2.93891C9.15469 2.85141 9.06063 2.79891 8.96 2.8L0.56 2.8Z" id="Shape" fill="#FFFFFF" fill-rule="evenodd" stroke="none" />
    </g>
  </g>
</svg>